<svg fill="#ffdbc5" xmlns="http://www.w3.org/2000/svg" viewBox="0 0 24 24" width="24px" height="24px"><path fill="none" stroke="#ffdbc5" stroke-miterlimit="10" stroke-width="2" d="M19.99,4.195c0,0-12.985,5.309-16.989,6.994v0.913L7.75,14l1.653,5l0.486,0.003L13,16.375l3.758,3.621h1.218L20.83,4.514L19.99,4.195z"/><path d="M17.082,7.799c0,0-8.412,4.854-10.183,5.86C7.398,13.859,7.75,14,7.75,14s1.151,3.445,1.39,4.2c0.239,0.756,0.431,0.774,0.431,0.774c0.053,0.023,0.105,0.032,0.153,0.032c0.039,0,0.066-0.014,0.099-0.023L11,14.375L17.282,8L17.082,7.799z"/></svg>